<mxfile host="app.diagrams.net" modified="2021-06-24T08:25:20.513Z" agent="5.0 (Windows NT 10.0; Win64; x64) AppleWebKit/537.36 (KHTML, like Gecko) Chrome/91.0.4472.106 Safari/537.36" etag="DtbeB7U7vzpvzICUErcM" version="14.8.0" type="github">
  <diagram id="BjNS2pmvgADE4GYuvBID" name="Page-1">
    <mxGraphModel dx="677" dy="383" grid="1" gridSize="10" guides="1" tooltips="1" connect="1" arrows="1" fold="1" page="1" pageScale="1" pageWidth="827" pageHeight="1169" math="0" shadow="0">
      <root>
        <mxCell id="0" />
        <mxCell id="1" parent="0" />
        <mxCell id="AVKD9DnOGfVbJumX4m-C-15" style="edgeStyle=orthogonalEdgeStyle;rounded=0;orthogonalLoop=1;jettySize=auto;html=1;entryX=0;entryY=0.5;entryDx=0;entryDy=0;startArrow=ERzeroToMany;startFill=1;endArrow=ERoneToMany;endFill=0;" edge="1" parent="1" source="AVKD9DnOGfVbJumX4m-C-1" target="AVKD9DnOGfVbJumX4m-C-3">
          <mxGeometry relative="1" as="geometry" />
        </mxCell>
        <mxCell id="AVKD9DnOGfVbJumX4m-C-1" value="Season" style="whiteSpace=wrap;html=1;aspect=fixed;" vertex="1" parent="1">
          <mxGeometry x="210" y="120" width="80" height="80" as="geometry" />
        </mxCell>
        <mxCell id="AVKD9DnOGfVbJumX4m-C-12" style="edgeStyle=orthogonalEdgeStyle;rounded=0;orthogonalLoop=1;jettySize=auto;html=1;entryX=1;entryY=0.75;entryDx=0;entryDy=0;startArrow=ERmany;startFill=0;endArrow=ERzeroToMany;endFill=1;" edge="1" parent="1" source="AVKD9DnOGfVbJumX4m-C-2" target="AVKD9DnOGfVbJumX4m-C-6">
          <mxGeometry relative="1" as="geometry" />
        </mxCell>
        <mxCell id="AVKD9DnOGfVbJumX4m-C-19" style="edgeStyle=orthogonalEdgeStyle;rounded=0;orthogonalLoop=1;jettySize=auto;html=1;startArrow=ERmandOne;startFill=0;endArrow=ERzeroToMany;endFill=1;" edge="1" parent="1" source="AVKD9DnOGfVbJumX4m-C-2" target="AVKD9DnOGfVbJumX4m-C-4">
          <mxGeometry relative="1" as="geometry" />
        </mxCell>
        <mxCell id="AVKD9DnOGfVbJumX4m-C-22" style="edgeStyle=orthogonalEdgeStyle;rounded=0;orthogonalLoop=1;jettySize=auto;html=1;exitX=0;exitY=0.25;exitDx=0;exitDy=0;entryX=1.013;entryY=0.163;entryDx=0;entryDy=0;entryPerimeter=0;startArrow=ERzeroToMany;startFill=1;endArrow=ERzeroToMany;endFill=1;" edge="1" parent="1" source="AVKD9DnOGfVbJumX4m-C-2" target="AVKD9DnOGfVbJumX4m-C-1">
          <mxGeometry relative="1" as="geometry" />
        </mxCell>
        <mxCell id="AVKD9DnOGfVbJumX4m-C-2" value="Drivers" style="whiteSpace=wrap;html=1;aspect=fixed;" vertex="1" parent="1">
          <mxGeometry x="414" y="120" width="80" height="80" as="geometry" />
        </mxCell>
        <mxCell id="AVKD9DnOGfVbJumX4m-C-14" style="edgeStyle=orthogonalEdgeStyle;rounded=0;orthogonalLoop=1;jettySize=auto;html=1;entryX=0;entryY=0.5;entryDx=0;entryDy=0;startArrow=ERmandOne;startFill=0;endArrow=ERzeroToMany;endFill=1;" edge="1" parent="1" source="AVKD9DnOGfVbJumX4m-C-3" target="AVKD9DnOGfVbJumX4m-C-6">
          <mxGeometry relative="1" as="geometry" />
        </mxCell>
        <mxCell id="AVKD9DnOGfVbJumX4m-C-3" value="Circuit" style="whiteSpace=wrap;html=1;aspect=fixed;" vertex="1" parent="1">
          <mxGeometry x="210" y="240" width="80" height="80" as="geometry" />
        </mxCell>
        <mxCell id="AVKD9DnOGfVbJumX4m-C-16" style="edgeStyle=orthogonalEdgeStyle;rounded=0;orthogonalLoop=1;jettySize=auto;html=1;entryX=0.5;entryY=1;entryDx=0;entryDy=0;endArrow=ERmandOne;endFill=0;startArrow=ERzeroToMany;startFill=1;" edge="1" parent="1" source="AVKD9DnOGfVbJumX4m-C-4" target="AVKD9DnOGfVbJumX4m-C-6">
          <mxGeometry relative="1" as="geometry" />
        </mxCell>
        <mxCell id="AVKD9DnOGfVbJumX4m-C-4" value="Score" style="whiteSpace=wrap;html=1;aspect=fixed;" vertex="1" parent="1">
          <mxGeometry x="280" y="340" width="80" height="80" as="geometry" />
        </mxCell>
        <mxCell id="AVKD9DnOGfVbJumX4m-C-6" value="Race" style="whiteSpace=wrap;html=1;aspect=fixed;" vertex="1" parent="1">
          <mxGeometry x="414" y="240" width="80" height="80" as="geometry" />
        </mxCell>
      </root>
    </mxGraphModel>
  </diagram>
</mxfile>
